<svg version="1.1" id="Layer_1" xmlns="http://www.w3.org/2000/svg" xmlns:xlink="http://www.w3.org/1999/xlink" x="0px" y="0px"
	 width="100%" viewBox="0 0 125 125" enable-background="new 0 0 125 125" xml:space="preserve">
<path fill="#000000" opacity="1.000000" stroke="none" 
	d="
M126.000000,66.000000 
	C126.000000,85.982422 126.000000,105.964836 126.000000,125.973633 
	C84.387558,125.973633 42.775089,125.973633 1.081312,125.973633 
	C1.081312,84.424309 1.081312,42.848408 1.081312,1.136253 
	C42.666393,1.136253 84.333122,1.136253 126.000000,1.136253 
	C126.000000,21.765676 126.000000,42.414181 125.640976,63.701603 
	C120.982674,64.134552 116.683411,63.928577 112.348343,63.720890 
	C111.754303,57.596642 112.946419,51.050186 106.744568,47.025707 
	C106.493164,46.862576 106.218643,46.484413 106.224663,46.212399 
	C106.338661,41.061920 105.999908,35.837704 106.764679,30.781498 
	C107.716774,24.486975 104.884544,21.475939 98.704155,23.019527 
	C97.599274,23.295479 96.054588,22.985249 95.074097,22.370087 
	C91.782753,20.305109 89.025177,21.126505 87.088943,25.241322 
	C87.033775,25.474092 86.961258,25.947002 86.644699,25.981644 
	C85.906860,26.068369 85.485596,26.120449 84.839973,26.100040 
	C84.615623,26.027550 84.147987,25.967022 83.924294,25.648582 
	C78.559715,23.859049 76.698555,26.893970 75.452682,31.238842 
	C72.847176,31.211035 70.507721,31.084167 68.036179,30.656046 
	C66.941406,29.976097 65.978722,29.597403 64.778580,29.214985 
	C64.226761,29.358120 64.043556,29.603073 63.604752,29.979980 
	C61.775768,30.324244 60.333546,30.634645 58.926571,30.951683 
	C58.961823,30.958321 58.975090,30.887817 58.670937,30.918598 
	C57.895721,31.278458 57.424660,31.607538 56.735146,32.020451 
	C56.238972,32.277878 56.052681,32.521416 55.620781,32.868271 
	C54.470810,33.585300 53.657887,34.268963 52.621681,35.003815 
	C52.398396,35.055000 51.968258,35.212730 51.629368,35.029549 
	C46.623047,34.388535 43.186932,32.117599 40.467484,28.261356 
	C39.617386,27.055897 37.502281,26.241617 35.917343,26.156275 
	C32.263786,25.959551 28.785316,26.218246 26.057253,22.816957 
	C25.257778,21.820189 22.582806,21.706003 20.982721,22.088329 
	C15.956517,23.289291 9.364055,35.708591 12.233317,39.957867 
	C15.904002,45.394028 13.875489,50.146385 12.793543,55.262554 
	C12.593613,56.207954 11.718618,57.322468 12.002126,58.009373 
	C14.493990,64.046822 10.975446,64.168556 6.524322,64.149208 
	C4.073606,64.138550 1.537373,65.135719 4.810968,68.508011 
	C7.508520,75.400795 12.431230,77.284126 19.304195,75.988953 
	C20.483768,77.017914 21.361622,77.889107 22.469744,79.019089 
	C29.706604,83.738533 36.713196,88.199196 43.832413,93.085861 
	C46.140720,94.006493 48.329361,94.887878 50.533329,94.928047 
	C59.518791,95.091812 68.511673,95.115433 77.495186,94.906105 
	C79.427788,94.861084 81.332787,93.632202 83.595169,92.991089 
	C85.993652,91.719994 88.071106,90.441765 90.096695,89.086060 
	C95.373619,85.554298 100.627808,81.988564 106.169846,78.221855 
	C106.955002,77.288200 107.461365,76.569077 108.417252,75.908646 
	C115.296494,77.081039 120.288666,75.537445 122.870552,68.864861 
	C123.327797,67.683197 124.927734,66.943687 126.000000,66.000000 
z"/>
<path fill="#588561" opacity="1.000000" stroke="none" 
	d="
M87.144119,25.008553 
	C89.025177,21.126505 91.782753,20.305109 95.074097,22.370087 
	C96.054588,22.985249 97.599274,23.295479 98.704155,23.019527 
	C104.884544,21.475939 107.716774,24.486975 106.764679,30.781498 
	C105.999908,35.837704 106.338661,41.061920 106.224663,46.212399 
	C106.218643,46.484413 106.493164,46.862576 106.744568,47.025707 
	C112.946419,51.050186 111.754303,57.596642 112.348343,63.720890 
	C116.683411,63.928577 120.982674,64.134552 125.640976,64.170258 
	C126.000000,64.444443 126.000000,64.888893 126.000000,65.666664 
	C124.927734,66.943687 123.327797,67.683197 122.870552,68.864861 
	C120.288666,75.537445 115.296494,77.081039 108.416534,75.690910 
	C107.966309,75.414474 107.962875,74.978432 108.243317,74.752945 
	C111.460518,73.469185 114.510399,72.635132 117.276886,71.239365 
	C118.343903,70.701027 119.428268,68.801323 119.283279,67.679779 
	C119.157921,66.710068 117.363335,65.342552 116.201698,65.229576 
	C111.819351,64.803345 107.381386,64.969093 102.990829,64.598320 
	C100.969955,64.427658 99.010590,63.528721 97.364655,63.132027 
	C104.627274,65.030769 106.564064,62.771572 104.764755,54.529938 
	C104.446655,53.072880 102.696724,51.928413 101.607986,50.639595 
	C100.719536,52.014286 99.547905,53.286983 99.007629,54.787067 
	C98.152657,57.160892 97.720566,59.687023 96.702499,62.148056 
	C94.528046,62.457001 92.771530,62.874287 90.991020,63.054794 
	C86.671562,63.492687 82.340942,63.820412 78.435532,64.135300 
	C87.597298,63.932358 93.799271,60.147652 93.839241,53.858654 
	C93.869713,49.065849 96.056343,46.737038 99.629395,44.518135 
	C100.795059,43.794243 101.942253,41.847786 101.863235,40.534775 
	C101.620621,36.503788 100.779709,32.508812 100.210548,28.757919 
	C98.238182,28.421354 95.738449,27.994801 92.752426,27.485266 
	C91.190567,30.101101 88.945641,32.645432 85.196083,29.968128 
	C87.223541,28.613216 89.734840,27.704510 87.144119,25.008553 
z"/>
<path fill="#45804F" opacity="1.000000" stroke="none" 
	d="
M105.891060,78.436386 
	C100.627808,81.988564 95.373619,85.554298 90.096695,89.086060 
	C88.071106,90.441765 85.993652,91.719994 83.108925,92.952545 
	C69.425278,92.801003 56.572529,92.730438 43.719788,92.659866 
	C36.713196,88.199196 29.706604,83.738533 22.527157,78.644836 
	C23.405333,77.705528 24.455748,77.134247 25.507481,77.131813 
	C50.969334,77.072815 76.431389,77.053848 101.893143,77.123756 
	C103.226967,77.127411 104.558472,77.979362 105.891060,78.436386 
z"/>
<path fill="#4B7E56" opacity="1.000000" stroke="none" 
	d="
M87.088943,25.241322 
	C89.734840,27.704510 87.223541,28.613216 84.871460,29.903347 
	C83.836250,29.955429 83.399658,29.891556 82.879868,29.790936 
	C82.477516,29.737801 82.216072,29.880638 81.946060,30.125401 
	C81.879791,30.068096 81.994392,29.935555 82.016068,30.070175 
	C82.055695,30.479042 82.028862,30.748787 81.958092,31.259117 
	C81.958946,31.504202 81.896042,31.990322 81.653564,32.154297 
	C80.954819,32.936680 80.498543,33.555084 80.072433,34.122498 
	C80.102608,34.071510 80.204582,34.131855 79.854736,34.162025 
	C78.634438,34.512184 77.763985,34.832169 76.552292,35.254997 
	C73.572395,35.939793 71.218513,36.852623 70.576553,40.224747 
	C69.288345,41.708454 68.223724,42.981880 66.722260,44.777828 
	C66.471046,41.621544 66.286949,39.308430 66.055023,36.615044 
	C64.711746,35.548534 63.416283,34.862297 61.843090,34.113350 
	C56.209965,35.548298 55.496902,37.379547 58.033463,43.024124 
	C58.000786,43.011105 58.027470,42.946011 58.082878,43.270828 
	C58.461758,44.400166 58.785225,45.204693 59.055286,46.025414 
	C59.001881,46.041615 58.969471,45.934807 59.169811,45.959167 
	C59.895866,45.927689 60.421577,45.871857 61.042702,45.621311 
	C61.317936,45.181347 61.556713,45.027714 62.077927,45.169209 
	C62.544937,46.933846 62.788456,48.494965 63.021194,50.488598 
	C63.359596,55.258095 63.708778,59.595085 63.826469,63.939949 
	C61.588104,64.030701 59.541241,63.891041 57.582714,64.242989 
	C53.559254,64.965988 49.560677,66.151634 46.377590,63.071507 
	C49.096241,63.165409 51.574158,63.481106 53.799313,62.872570 
	C55.325268,62.455254 57.345470,60.911629 57.595760,59.580273 
	C57.851051,58.222317 56.615704,55.903095 55.336163,55.050522 
	C48.178410,50.281219 41.401474,54.088406 34.902283,56.875515 
	C32.527588,57.893875 30.993046,60.871372 28.749645,63.013695 
	C26.913628,63.036350 25.403191,63.000412 24.048164,62.652893 
	C25.743856,60.254330 26.850521,57.401081 28.911734,56.234676 
	C33.682262,53.535133 32.708130,50.542538 30.453672,47.012211 
	C28.954432,44.664501 27.254354,42.409744 26.062452,39.913651 
	C25.285679,38.286926 25.259495,36.301788 24.897068,34.477207 
	C25.417700,34.192062 25.938334,33.906914 26.458967,33.621769 
	C27.576044,34.924511 28.832525,36.133663 29.782417,37.548641 
	C32.059761,40.941017 34.090828,44.502548 36.451168,47.832886 
	C37.099121,48.747120 38.601376,49.666840 39.638004,49.590069 
	C44.413490,49.236427 49.162960,48.531403 54.056763,47.839706 
	C54.194942,47.164394 54.198116,46.601761 54.152298,45.779922 
	C54.105366,45.344860 54.107426,45.169010 54.218941,44.697220 
	C53.622349,42.519409 52.916302,40.637535 52.169067,38.402740 
	C52.074673,37.104122 52.021465,36.158428 51.968258,35.212730 
	C51.968258,35.212730 52.398396,35.055000 52.934280,34.920223 
	C54.299389,34.135265 55.128609,33.485085 55.957832,32.834900 
	C56.052681,32.521416 56.238972,32.277878 56.940430,32.026268 
	C57.901134,31.594776 58.438114,31.241297 58.975090,30.887817 
	C58.975090,30.887817 58.961823,30.958321 59.304474,30.938004 
	C61.095253,30.593830 62.543381,30.269974 63.991512,29.946117 
	C64.043556,29.603073 64.226761,29.358120 65.002098,29.422424 
	C66.364815,30.074825 67.266541,30.516064 68.168274,30.957300 
	C70.507721,31.084167 72.847176,31.211035 75.775444,31.068663 
	C78.958839,29.188622 81.553413,27.577822 84.147987,25.967022 
	C84.147987,25.967022 84.615623,26.027550 85.031448,26.087729 
	C85.951927,26.080938 86.456596,26.013969 86.961258,25.947002 
	C86.961258,25.947002 87.033775,25.474092 87.088943,25.241322 
z"/>
<path fill="#588462" opacity="1.000000" stroke="none" 
	d="
M51.629368,35.029549 
	C52.021465,36.158428 52.074673,37.104122 51.881611,38.466000 
	C51.444122,38.923141 51.252899,38.964104 50.857712,38.670502 
	C46.113422,37.318691 40.968575,37.430180 38.890427,31.861313 
	C38.722549,31.411453 37.873127,31.050573 37.287861,30.947891 
	C32.452156,30.099501 27.604038,29.321831 21.967585,28.392092 
	C21.742987,28.634480 20.514484,29.939762 19.308781,31.265772 
	C16.842516,33.978127 15.878736,37.114418 18.151745,40.210400 
	C21.917614,45.339752 20.899483,50.198528 17.770041,55.141445 
	C16.681793,55.958981 15.157668,56.833511 15.198739,57.627033 
	C15.427890,62.054428 13.814738,64.762001 9.297664,65.715424 
	C8.362885,65.912720 7.661071,67.213760 6.498434,68.030212 
	C5.674439,68.089172 5.203898,68.124016 4.733357,68.158859 
	C1.537373,65.135719 4.073606,64.138550 6.524322,64.149208 
	C10.975446,64.168556 14.493990,64.046822 12.002126,58.009373 
	C11.718618,57.322468 12.593613,56.207954 12.793543,55.262554 
	C13.875489,50.146385 15.904002,45.394028 12.233317,39.957867 
	C9.364055,35.708591 15.956517,23.289291 20.982721,22.088329 
	C22.582806,21.706003 25.257778,21.820189 26.057253,22.816957 
	C28.785316,26.218246 32.263786,25.959551 35.917343,26.156275 
	C37.502281,26.241617 39.617386,27.055897 40.467484,28.261356 
	C43.186932,32.117599 46.623047,34.388535 51.629368,35.029549 
z"/>
<path fill="#B1D1B6" opacity="1.000000" stroke="none" 
	d="
M106.169846,78.221863 
	C104.558472,77.979362 103.226967,77.127411 101.893143,77.123756 
	C76.431389,77.053848 50.969334,77.072815 25.507481,77.131813 
	C24.455748,77.134247 23.405333,77.705528 22.296890,78.386047 
	C21.361622,77.889107 20.483768,77.017914 19.322144,75.767136 
	C19.038372,75.387543 19.042316,74.941887 19.506439,74.928307 
	C49.301331,74.935966 78.632103,74.957199 107.962875,74.978432 
	C107.962875,74.978432 107.966309,75.414474 107.967018,75.632217 
	C107.461365,76.569077 106.955002,77.288200 106.169846,78.221863 
z"/>
<path fill="#96B59C" opacity="1.000000" stroke="none" 
	d="
M43.832409,93.085861 
	C56.572529,92.730438 69.425278,92.801003 82.764267,92.910110 
	C81.332787,93.632202 79.427788,94.861084 77.495186,94.906105 
	C68.511673,95.115433 59.518791,95.091812 50.533329,94.928047 
	C48.329361,94.887878 46.140720,94.006493 43.832409,93.085861 
z"/>
<path fill="#588561" opacity="1.000000" stroke="none" 
	d="
M19.042316,74.941887 
	C19.042316,74.941887 19.038372,75.387543 19.020422,75.609367 
	C12.431230,77.284126 7.508520,75.400795 4.810968,68.508011 
	C5.203898,68.124016 5.674439,68.089172 6.747001,68.279709 
	C11.246786,70.650696 15.144551,72.796288 19.042316,74.941887 
z"/>
<path fill="#588561" opacity="1.000000" stroke="none" 
	d="
M83.924294,25.648582 
	C81.553413,27.577822 78.958839,29.188622 76.041504,30.969601 
	C76.698555,26.893970 78.559715,23.859049 83.924294,25.648582 
z"/>
<path fill="#588561" opacity="1.000000" stroke="none" 
	d="
M68.036179,30.656046 
	C67.266541,30.516064 66.364815,30.074825 65.239563,29.426147 
	C65.978722,29.597403 66.941406,29.976097 68.036179,30.656046 
z"/>
<path fill="#588561" opacity="1.000000" stroke="none" 
	d="
M63.604752,29.979980 
	C62.543381,30.269974 61.095253,30.593830 59.269218,30.931366 
	C60.333546,30.634645 61.775768,30.324244 63.604752,29.979980 
z"/>
<path fill="#588561" opacity="1.000000" stroke="none" 
	d="
M55.620781,32.868271 
	C55.128609,33.485085 54.299389,34.135265 53.157566,34.869038 
	C53.657887,34.268963 54.470810,33.585300 55.620781,32.868271 
z"/>
<path fill="#588561" opacity="1.000000" stroke="none" 
	d="
M58.670937,30.918598 
	C58.438114,31.241297 57.901134,31.594776 57.158875,31.942436 
	C57.424660,31.607538 57.895721,31.278458 58.670937,30.918598 
z"/>
<path fill="#588561" opacity="1.000000" stroke="none" 
	d="
M86.644699,25.981644 
	C86.456596,26.013969 85.951927,26.080938 85.255798,26.160219 
	C85.485596,26.120449 85.906860,26.068369 86.644699,25.981644 
z"/>
<path fill="#41804C" opacity="1.000000" stroke="none" 
	d="
M19.506439,74.928307 
	C15.144551,72.796288 11.246786,70.650696 7.100455,68.255600 
	C7.661071,67.213760 8.362885,65.912720 9.297664,65.715424 
	C13.814738,64.762001 15.427890,62.054428 15.198739,57.627033 
	C15.157668,56.833511 16.681793,55.958981 17.753551,55.542755 
	C18.054441,59.911621 18.194412,63.767879 23.892754,62.964474 
	C25.403191,63.000412 26.913628,63.036350 29.090786,63.178143 
	C31.787739,63.199661 34.065353,63.669247 35.789379,62.899288 
	C38.285358,61.784561 40.243927,59.509640 42.694805,58.235737 
	C44.349697,57.375568 46.457653,57.387070 48.362946,57.008663 
	C47.659798,58.486515 46.928181,59.951885 46.271301,61.450024 
	C46.080624,61.884903 46.103901,62.413597 46.029099,62.899284 
	C49.560677,66.151634 53.559254,64.965988 57.582714,64.242989 
	C59.541241,63.891041 61.588104,64.030701 64.151611,63.970238 
	C65.140091,64.048409 65.571938,64.104172 66.128265,64.162552 
	C66.252739,64.165169 66.626045,64.168945 66.626045,64.168945 
	C66.626045,64.168945 66.999390,64.162811 67.313438,64.101791 
	C68.052124,64.000229 68.476761,63.959694 69.182312,63.943436 
	C71.249481,63.657631 73.035736,63.347549 75.084694,63.189949 
	C75.917801,63.535080 76.488205,63.727726 77.300880,63.977097 
	C77.543152,64.033821 78.014816,64.192528 78.014816,64.192528 
	C82.340942,63.820412 86.671562,63.492687 90.991020,63.054794 
	C92.771530,62.874287 94.528046,62.457001 96.668701,62.349243 
	C97.041939,62.551075 97.023331,62.960018 97.023331,62.960018 
	C99.010590,63.528721 100.969955,64.427658 102.990829,64.598320 
	C107.381386,64.969093 111.819351,64.803345 116.201698,65.229576 
	C117.363335,65.342552 119.157921,66.710068 119.283279,67.679779 
	C119.428268,68.801323 118.343903,70.701027 117.276886,71.239365 
	C114.510399,72.635132 111.460518,73.469185 108.243317,74.752945 
	C78.632103,74.957199 49.301331,74.935966 19.506439,74.928307 
z"/>
<path fill="#000000" opacity="1.000000" stroke="none" 
	d="
M68.901398,63.919159 
	C68.476761,63.959694 68.052124,64.000229 67.064575,64.061401 
	C66.335709,64.107994 66.169754,64.133965 66.003792,64.159935 
	C65.571938,64.104172 65.140091,64.048409 64.383102,63.962360 
	C63.708778,59.595085 63.359596,55.258095 63.387085,50.475990 
	C68.196114,48.158081 71.536980,45.518543 70.800140,40.014469 
	C71.218513,36.852623 73.572395,35.939793 76.724213,35.490410 
	C78.226456,35.125931 79.215515,34.628891 80.204582,34.131851 
	C80.204582,34.131855 80.102608,34.071510 80.358994,34.006409 
	C81.042274,33.290977 81.469154,32.640648 81.896042,31.990322 
	C81.896042,31.990322 81.958946,31.504202 82.024521,30.991520 
	C82.058182,30.297745 82.026283,30.116650 81.994392,29.935555 
	C81.994392,29.935555 81.879791,30.068096 82.187454,30.041237 
	C82.651100,29.952147 82.807076,29.889914 82.963058,29.827682 
	C83.399658,29.891556 83.836250,29.955429 84.597473,30.084082 
	C88.945641,32.645432 91.190567,30.101101 92.752426,27.485266 
	C95.738449,27.994801 98.238182,28.421354 100.210548,28.757919 
	C100.779709,32.508812 101.620621,36.503788 101.863235,40.534775 
	C101.942253,41.847786 100.795059,43.794243 99.629395,44.518135 
	C96.056343,46.737038 93.869713,49.065849 93.839241,53.858654 
	C93.799271,60.147652 87.597298,63.932358 78.435532,64.135300 
	C78.014816,64.192528 77.543152,64.033821 77.293922,63.610329 
	C77.404732,61.788647 77.764778,60.390457 78.065460,58.988312 
	C78.006104,58.984348 77.998169,59.103062 78.279236,58.976528 
	C79.001480,58.220417 79.442657,57.590843 79.931534,56.740242 
	C79.979240,56.519211 80.059708,56.074200 80.337097,55.948601 
	C81.045906,55.200886 81.477318,54.578770 81.949112,53.762474 
	C81.989487,53.568295 82.023918,53.173122 82.311127,53.011944 
	C83.342934,51.563438 84.087532,50.276112 84.888138,48.761436 
	C84.944138,48.534092 85.012611,48.070839 85.317329,47.927917 
	C86.165009,46.860703 86.707977,45.936409 87.182526,45.033749 
	C87.114098,45.055382 87.157372,45.192234 87.445168,44.967747 
	C87.736145,43.281353 88.263237,40.865555 87.648827,40.528095 
	C85.385803,39.285156 83.205765,39.653339 82.777679,42.878250 
	C82.835274,42.888634 82.856033,42.773438 82.555489,42.923935 
	C81.520447,44.405445 80.785957,45.736458 79.998428,47.221619 
	C79.945396,47.375771 79.950050,47.701767 79.648972,47.873272 
	C78.858093,49.028305 78.368301,50.011833 77.932510,50.945335 
	C77.986519,50.895313 77.886459,50.787315 77.580383,50.934345 
	C76.808014,52.049332 76.341713,53.017284 75.923630,53.942211 
	C75.971855,53.899181 75.885773,53.802761 75.576355,53.941841 
	C74.775223,55.047886 74.283493,56.014851 73.860893,56.950714 
	C73.930023,56.919617 73.867805,56.781364 73.568436,56.936058 
	C72.914970,58.050114 72.560883,59.009476 72.055099,60.255287 
	C70.902740,61.667542 69.902069,62.793350 68.901398,63.919159 
z"/>
<path fill="#000000" opacity="1.000000" stroke="none" 
	d="
M97.364655,63.132027 
	C97.023331,62.960018 97.041939,62.551075 97.075729,62.349892 
	C97.720566,59.687023 98.152657,57.160892 99.007629,54.787067 
	C99.547905,53.286983 100.719536,52.014286 101.607986,50.639595 
	C102.696724,51.928413 104.446655,53.072880 104.764755,54.529938 
	C106.564064,62.771572 104.627274,65.030769 97.364655,63.132027 
z"/>
<path fill="#000000" opacity="1.000000" stroke="none" 
	d="
M24.048164,62.652893 
	C18.194412,63.767879 18.054441,59.911621 18.040352,55.562347 
	C20.899483,50.198528 21.917614,45.339752 18.151745,40.210400 
	C15.878736,37.114418 16.842516,33.978127 19.308781,31.265772 
	C20.514484,29.939762 21.742987,28.634480 21.967585,28.392092 
	C27.604038,29.321831 32.452156,30.099501 37.287861,30.947891 
	C37.873127,31.050573 38.722549,31.411453 38.890427,31.861313 
	C40.968575,37.430180 46.113422,37.318691 50.879932,39.015335 
	C52.107239,41.460880 53.108360,43.227020 54.109486,44.993160 
	C54.107426,45.169010 54.105366,45.344860 54.081261,46.094727 
	C54.013397,47.096622 53.967579,47.524509 53.921757,47.952393 
	C49.162960,48.531403 44.413490,49.236427 39.638004,49.590069 
	C38.601376,49.666840 37.099121,48.747120 36.451168,47.832886 
	C34.090828,44.502548 32.059761,40.941017 29.782417,37.548641 
	C28.832525,36.133663 27.576044,34.924511 26.458967,33.621769 
	C25.938334,33.906914 25.417700,34.192062 24.897068,34.477207 
	C25.259495,36.301788 25.285679,38.286926 26.062452,39.913651 
	C27.254354,42.409744 28.954432,44.664501 30.453672,47.012211 
	C32.708130,50.542538 33.682262,53.535133 28.911734,56.234676 
	C26.850521,57.401081 25.743856,60.254330 24.048164,62.652893 
z"/>
<path fill="#000000" opacity="1.000000" stroke="none" 
	d="
M46.377590,63.071507 
	C46.103901,62.413597 46.080624,61.884903 46.271301,61.450024 
	C46.928181,59.951885 47.659798,58.486515 48.362946,57.008663 
	C46.457653,57.387070 44.349697,57.375568 42.694805,58.235737 
	C40.243927,59.509640 38.285358,61.784561 35.789379,62.899288 
	C34.065353,63.669247 31.787739,63.199661 29.416367,63.119553 
	C30.993046,60.871372 32.527588,57.893875 34.902283,56.875515 
	C41.401474,54.088406 48.178410,50.281219 55.336163,55.050522 
	C56.615704,55.903095 57.851051,58.222317 57.595760,59.580273 
	C57.345470,60.911629 55.325268,62.455254 53.799313,62.872570 
	C51.574158,63.481106 49.096241,63.165409 46.377590,63.071507 
z"/>
<path fill="#000000" opacity="1.000000" stroke="none" 
	d="
M61.854431,44.965694 
	C61.556713,45.027714 61.317936,45.181347 60.713696,45.645325 
	C59.849346,45.887638 59.409409,45.911224 58.969471,45.934807 
	C58.969471,45.934807 59.001881,46.041615 59.069038,45.676716 
	C58.766617,44.523216 58.397041,43.734612 58.027470,42.946011 
	C58.027470,42.946011 58.000786,43.011105 58.014351,42.610680 
	C57.242348,38.436974 58.934887,35.926121 62.120823,34.176060 
	C63.416283,34.862297 64.711746,35.548534 65.873283,36.941666 
	C64.444389,40.087608 63.149410,42.526649 61.854431,44.965694 
z"/>
<path fill="#588561" opacity="1.000000" stroke="none" 
	d="
M62.077927,45.169209 
	C63.149410,42.526649 64.444389,40.087608 65.921104,37.321938 
	C66.286949,39.308430 66.471046,41.621544 66.722260,44.777828 
	C68.223724,42.981880 69.288345,41.708454 70.576553,40.224747 
	C71.536980,45.518543 68.196114,48.158081 63.397865,50.043480 
	C62.788456,48.494965 62.544937,46.933846 62.077927,45.169209 
z"/>
<path fill="#588561" opacity="1.000000" stroke="none" 
	d="
M61.843090,34.113350 
	C58.934887,35.926121 57.242348,38.436974 58.047028,42.623703 
	C55.496902,37.379547 56.209965,35.548298 61.843090,34.113350 
z"/>
<path fill="#588561" opacity="1.000000" stroke="none" 
	d="
M54.218941,44.697220 
	C53.108360,43.227020 52.107239,41.460880 51.083893,39.349907 
	C51.252899,38.964104 51.444122,38.923141 51.922798,38.818920 
	C52.916302,40.637535 53.622349,42.519409 54.218941,44.697220 
z"/>
<path fill="#588561" opacity="1.000000" stroke="none" 
	d="
M54.056763,47.839706 
	C53.967579,47.524509 54.013397,47.096622 54.130257,46.353935 
	C54.198116,46.601761 54.194942,47.164394 54.056763,47.839706 
z"/>
<path fill="#588561" opacity="1.000000" stroke="none" 
	d="
M79.854736,34.162025 
	C79.215515,34.628891 78.226456,35.125931 77.065460,35.387562 
	C77.763985,34.832169 78.634438,34.512184 79.854736,34.162025 
z"/>
<path fill="#588561" opacity="1.000000" stroke="none" 
	d="
M58.082878,43.270828 
	C58.397041,43.734612 58.766617,44.523216 59.122444,45.660515 
	C58.785225,45.204693 58.461758,44.400166 58.082878,43.270828 
z"/>
<path fill="#588561" opacity="1.000000" stroke="none" 
	d="
M81.653564,32.154297 
	C81.469154,32.640648 81.042274,33.290977 80.328827,34.057396 
	C80.498543,33.555084 80.954819,32.936680 81.653564,32.154297 
z"/>
<path fill="#588561" opacity="1.000000" stroke="none" 
	d="
M59.169811,45.959167 
	C59.409409,45.911224 59.849346,45.887638 60.618286,45.840042 
	C60.421577,45.871857 59.895866,45.927689 59.169811,45.959167 
z"/>
<path fill="#588561" opacity="1.000000" stroke="none" 
	d="
M82.879868,29.790936 
	C82.807076,29.889914 82.651100,29.952147 82.253723,30.098541 
	C82.216072,29.880638 82.477516,29.737801 82.879868,29.790936 
z"/>
<path fill="#588561" opacity="1.000000" stroke="none" 
	d="
M82.016068,30.070175 
	C82.026283,30.116650 82.058182,30.297745 82.023666,30.746435 
	C82.028862,30.748787 82.055695,30.479042 82.016068,30.070175 
z"/>
<path fill="#4B7E56" opacity="1.000000" stroke="none" 
	d="
M80.059708,56.074200 
	C80.059708,56.074200 79.979240,56.519211 79.672974,56.878937 
	C78.910522,57.860126 78.454346,58.481594 77.998169,59.103065 
	C77.998169,59.103062 78.006104,58.984348 77.779488,59.163116 
	C76.642578,60.573746 75.732285,61.805603 74.821991,63.037460 
	C73.035736,63.347549 71.249481,63.657631 69.182312,63.943439 
	C69.902069,62.793350 70.902740,61.667542 72.297020,60.050358 
	C73.083023,58.633110 73.475418,57.707237 73.867805,56.781364 
	C73.867805,56.781364 73.930023,56.919617 74.147293,56.776161 
	C74.871635,55.689392 75.378700,54.746075 75.885773,53.802761 
	C75.885773,53.802761 75.971855,53.899181 76.200668,53.757614 
	C76.915146,52.673141 77.400803,51.730228 77.886459,50.787315 
	C77.886459,50.787315 77.986519,50.895313 78.199654,50.742706 
	C78.925209,49.627327 79.437630,48.664547 79.950050,47.701767 
	C79.950050,47.701767 79.945396,47.375771 80.326584,47.101799 
	C81.423851,45.476364 82.139946,44.124901 82.856033,42.773438 
	C82.856033,42.773438 82.835274,42.888634 83.100983,42.885578 
	C84.630249,43.652428 85.893814,44.422329 87.157372,45.192234 
	C87.157372,45.192234 87.114098,45.055382 86.885330,45.183220 
	C86.108582,46.230980 85.560593,47.150909 85.012611,48.070839 
	C85.012611,48.070839 84.944138,48.534092 84.577621,48.891670 
	C83.482040,50.557205 82.752975,51.865162 82.023918,53.173122 
	C82.023918,53.173122 81.989487,53.568295 81.709076,53.792610 
	C80.972343,54.702682 80.516022,55.388439 80.059708,56.074200 
z"/>
<path fill="#608B6D" opacity="1.000000" stroke="none" 
	d="
M75.084694,63.189949 
	C75.732285,61.805603 76.642578,60.573746 77.838844,59.167080 
	C77.764778,60.390457 77.404732,61.788647 77.051651,63.553604 
	C76.488205,63.727726 75.917801,63.535080 75.084694,63.189949 
z"/>
<path fill="#4B7E56" opacity="1.000000" stroke="none" 
	d="
M66.128265,64.162552 
	C66.169754,64.133965 66.335709,64.107994 66.750526,64.122421 
	C66.999390,64.162811 66.626045,64.168945 66.626045,64.168945 
	C66.626045,64.168945 66.252739,64.165169 66.128265,64.162552 
z"/>
<path fill="#608B6D" opacity="1.000000" stroke="none" 
	d="
M87.445168,44.967747 
	C85.893814,44.422329 84.630249,43.652428 83.043388,42.875198 
	C83.205765,39.653339 85.385803,39.285156 87.648827,40.528095 
	C88.263237,40.865555 87.736145,43.281353 87.445168,44.967747 
z"/>
<path fill="#608B6D" opacity="1.000000" stroke="none" 
	d="
M82.555489,42.923935 
	C82.139946,44.124901 81.423851,45.476364 80.379608,46.947647 
	C80.785957,45.736458 81.520447,44.405445 82.555489,42.923935 
z"/>
<path fill="#608B6D" opacity="1.000000" stroke="none" 
	d="
M82.311127,53.011944 
	C82.752975,51.865162 83.482040,50.557205 84.521614,49.119015 
	C84.087532,50.276112 83.342934,51.563438 82.311127,53.011944 
z"/>
<path fill="#608B6D" opacity="1.000000" stroke="none" 
	d="
M79.648972,47.873272 
	C79.437630,48.664547 78.925209,49.627327 78.145645,50.792732 
	C78.368301,50.011833 78.858093,49.028305 79.648972,47.873272 
z"/>
<path fill="#608B6D" opacity="1.000000" stroke="none" 
	d="
M73.568436,56.936058 
	C73.475418,57.707237 73.083023,58.633110 72.448715,59.763908 
	C72.560883,59.009476 72.914970,58.050114 73.568436,56.936058 
z"/>
<path fill="#608B6D" opacity="1.000000" stroke="none" 
	d="
M80.337097,55.948601 
	C80.516022,55.388439 80.972343,54.702682 81.668694,53.986786 
	C81.477318,54.578770 81.045906,55.200886 80.337097,55.948601 
z"/>
<path fill="#608B6D" opacity="1.000000" stroke="none" 
	d="
M75.576355,53.941841 
	C75.378700,54.746075 74.871635,55.689392 74.078163,56.807259 
	C74.283493,56.014851 74.775223,55.047886 75.576355,53.941841 
z"/>
<path fill="#608B6D" opacity="1.000000" stroke="none" 
	d="
M77.580383,50.934345 
	C77.400803,51.730228 76.915146,52.673141 76.152451,53.800644 
	C76.341713,53.017284 76.808014,52.049332 77.580383,50.934345 
z"/>
<path fill="#608B6D" opacity="1.000000" stroke="none" 
	d="
M85.317329,47.927917 
	C85.560593,47.150909 86.108582,46.230980 86.953758,45.161583 
	C86.707977,45.936409 86.165009,46.860703 85.317329,47.927917 
z"/>
<path fill="#608B6D" opacity="1.000000" stroke="none" 
	d="
M78.279236,58.976532 
	C78.454346,58.481594 78.910522,57.860126 79.625267,57.099964 
	C79.442657,57.590843 79.001480,58.220417 78.279236,58.976532 
z"/>
</svg>